<svg width="140" height="47" viewBox="0 0 140 47" fill="none" xmlns="http://www.w3.org/2000/svg">
<rect width="140" height="47" rx="5" fill="#7E73FF"/>
<path d="M52.038 23.574V26.22H54.432V23.574H52.038ZM47.466 25.734V31.422H58.986V25.734H47.466ZM56.646 27.624V29.532H49.824V27.624H56.646ZM45.72 22.332V24.24H60.786V22.332H45.72ZM52.038 15.114V15.618C52.038 17.346 50.202 19.218 46.458 19.668L47.304 21.522C51.606 20.964 54.09 18.552 54.09 15.618V15.114H52.038ZM52.434 15.114V15.618C52.434 18.534 54.9 20.964 59.202 21.522L60.048 19.668C56.322 19.218 54.486 17.328 54.486 15.618V15.114H52.434ZM73.7626 14.934V31.602H76.1746V14.934H73.7626ZM68.8486 16.662V17.094C68.8486 21.558 67.1206 24.582 62.3326 26.886L63.5746 28.794C69.4966 25.932 71.2246 21.756 71.2246 16.662H68.8486ZM63.2146 16.662V18.552H69.9826V16.662H63.2146ZM90.3212 14.934V31.602H92.7332V14.934H90.3212ZM85.4072 16.662V17.094C85.4072 21.558 83.6792 24.582 78.8912 26.886L80.1332 28.794C86.0552 25.932 87.7832 21.756 87.7832 16.662H85.4072ZM79.7732 16.662V18.552H86.5412V16.662H79.7732Z" fill="#F5F5F5"/>
</svg>
