<svg width="22" height="22" viewBox="0 0 22 22" fill="none" xmlns="http://www.w3.org/2000/svg">
<path d="M3.23621 21.1518H18.9093C20.1464 21.1518 21.1483 20.1023 21.1483 18.8037V11.5604C21.1483 10.9391 20.9132 10.3402 20.4934 9.90078L12.6569 1.6864C11.7836 0.771201 10.3647 0.771201 9.49146 1.6864L1.65491 9.90078C1.2351 10.3402 1 10.9391 1 11.5604V18.8037C1 20.0995 2.00196 21.1518 3.23901 21.1518H3.23621Z" stroke="#7E73FF" stroke-width="1.5" stroke-linecap="round" stroke-linejoin="round"/>
<path d="M13.7311 16.254V21.1518H8.69336V16.254C8.69336 14.863 9.82126 13.7351 11.2122 13.7351C11.9063 13.7351 12.5389 14.0178 12.9923 14.474C13.4485 14.9274 13.7311 15.5599 13.7311 16.254Z" stroke="#7E73FF" stroke-width="1.5" stroke-linecap="round" stroke-linejoin="round"/>
</svg>
