<svg width="24" height="24" viewBox="0 0 24 24" fill="none" xmlns="http://www.w3.org/2000/svg">
<path d="M4.23621 22.1518H19.9093C21.1464 22.1518 22.1483 21.1023 22.1483 19.8037V12.5604C22.1483 11.9391 21.9132 11.3402 21.4934 10.9008L13.6569 2.6864C12.7836 1.7712 11.3647 1.7712 10.4915 2.6864L2.65491 10.9008C2.2351 11.3402 2 11.9391 2 12.5604V19.8037C2 21.0995 3.00196 22.1518 4.23901 22.1518H4.23621Z" fill="white"/>
<path d="M14.7311 17.2538V22.1516H9.69336V17.2538C9.69336 15.8628 10.8213 14.7349 12.2122 14.7349C12.9063 14.7349 13.5389 15.0175 13.9923 15.4737C14.4485 15.9271 14.7311 16.5597 14.7311 17.2538Z" fill="#3E4048"/>
</svg>
