<svg width="24" height="24" viewBox="0 0 24 24" fill="none" xmlns="http://www.w3.org/2000/svg">
<path fill-rule="evenodd" clip-rule="evenodd" d="M9.69336 22.1518H4.23901C3.00196 22.1518 2 21.0995 2 19.8037V12.5604C2 11.9391 2.2351 11.3402 2.65491 10.9008L10.4915 2.6864C11.3647 1.7712 12.7836 1.7712 13.6569 2.6864L21.4934 10.9008C21.9132 11.3402 22.1483 11.9391 22.1483 12.5604V19.8037C22.1483 21.1023 21.1464 22.1518 19.9093 22.1518H14.7311V17.254C14.7311 16.5599 14.4485 15.9274 13.9923 15.474C13.5389 15.0178 12.9063 14.7351 12.2122 14.7351C10.8213 14.7351 9.69336 15.863 9.69336 17.254V22.1518Z" fill="white"/>
</svg>
