<svg width="24" height="24" viewBox="0 0 24 24" fill="none" xmlns="http://www.w3.org/2000/svg">
<path fill-rule="evenodd" clip-rule="evenodd" d="M8.25 3H5C3.89543 3 3 3.89543 3 5V8.25H8.25V3ZM3 9.75V14.25H8.25V9.75H3ZM3 15.75V19C3 20.1046 3.89543 21 5 21H8.25V15.75H3ZM9.75 21H14.25V15.75H9.75V21ZM15.75 21H19C20.1046 21 21 20.1046 21 19V15.75H15.75V21ZM21 14.25V9.75H15.75V14.25H21ZM21 8.25V5C21 3.89543 20.1046 3 19 3H15.75V8.25H21ZM14.25 3H9.75V8.25H14.25V3ZM9.75 14.25V9.75H14.25V14.25H9.75Z" fill="white"/>
</svg>
