<svg width="140" height="47" viewBox="0 0 140 47" fill="none" xmlns="http://www.w3.org/2000/svg">
<rect width="140" height="47" rx="5" fill="#7E73FF"/>
<path d="M57.374 19.254V20.118C57.374 22.62 56.132 25.446 53.414 26.688L54.71 28.524C57.734 27.174 59.228 23.628 59.228 20.118V19.254H57.374ZM57.896 19.254V20.118C57.896 23.466 59.318 26.886 62.252 28.236L63.53 26.418C60.92 25.158 59.75 22.494 59.75 20.118V19.254H57.896ZM53.99 17.652V19.542H63.062V17.652H53.99ZM57.356 15.312V18.624H59.75V15.312H57.356ZM64.376 14.934V31.602H66.788V14.934H64.376ZM66.248 21.396V23.376H69.2V21.396H66.248ZM81.0066 14.934V26.976H83.4006V14.934H81.0066ZM82.7166 19.47V21.432H85.6146V19.47H82.7166ZM70.9086 22.332V24.258H72.2946C76.0026 24.258 77.9106 24.168 79.9446 23.718L79.7106 21.828C77.7126 22.26 75.9126 22.332 72.2946 22.332H70.9086ZM70.9086 16.248V23.358H73.2846V18.174H78.3606V16.248H70.9086ZM72.6546 29.406V31.314H83.9946V29.406H72.6546ZM72.6546 25.716V30.378H75.0486V25.716H72.6546Z" fill="#F5F5F5"/>
</svg>
