<svg width="59" height="26" viewBox="0 0 59 26" fill="none" xmlns="http://www.w3.org/2000/svg">
<rect width="59" height="26" rx="13" fill="#6298FF"/>
<path d="M11.1336 7.5V16.096H17.3356V7.5H11.1336ZM15.5016 8.956V14.626H12.9676V8.956H15.5016ZM19.0296 6.282V19.246H20.9056V6.282H19.0296ZM20.4856 11.168V12.708H22.7816V11.168H20.4856ZM23.6205 13.534V15.018H35.3665V13.534H23.6205ZM28.5205 14.486V19.246H30.3685V14.486H28.5205ZM24.9785 6.912V12.148H33.9665V6.912H24.9785ZM32.1325 8.382V10.678H26.8125V8.382H32.1325ZM45.4315 6.268V19.274H47.2935V6.268H45.4315ZM37.1995 14.738V16.25H38.3475C40.7135 16.25 42.6175 16.18 44.7175 15.802L44.5355 14.304C42.4775 14.654 40.6435 14.738 38.3475 14.738H37.1995ZM37.1855 7.374V8.858H41.3995V10.916H37.1995V15.298H39.0895V12.386H43.3035V7.374H37.1855Z" fill="white"/>
</svg>
