<svg width="140" height="47" viewBox="0 0 140 47" fill="none" xmlns="http://www.w3.org/2000/svg">
<rect width="140" height="47" rx="5" fill="#7E73FF"/>
<path d="M57.5 22.548V24.942H59.894V22.548H57.5ZM64.556 14.952V26.292H66.95V14.952H64.556ZM66.104 19.704V21.666H69.038V19.704H66.104ZM53.792 25.968C56.708 25.95 60.524 25.914 63.998 25.32L63.818 23.682C60.452 24.096 56.51 24.114 53.522 24.114L53.792 25.968ZM55.646 26.958V28.794H64.556V31.602H66.95V26.958H55.646ZM53.954 16.158V17.868H63.404V16.158H53.954ZM58.688 18.264C56.222 18.264 54.62 19.218 54.62 20.748C54.62 22.278 56.222 23.232 58.688 23.232C61.136 23.232 62.738 22.278 62.738 20.748C62.738 19.218 61.136 18.264 58.688 18.264ZM58.688 19.83C59.804 19.83 60.47 20.118 60.47 20.748C60.47 21.342 59.804 21.666 58.688 21.666C57.554 21.666 56.888 21.342 56.888 20.748C56.888 20.118 57.554 19.83 58.688 19.83ZM57.5 14.808V16.932H59.894V14.808H57.5ZM81.7266 14.952V26.922H84.1386V14.952H81.7266ZM73.0326 29.406V31.314H84.5526V29.406H73.0326ZM73.0326 25.716V30.18H75.4266V25.716H73.0326ZM75.0666 15.996C72.5106 15.996 70.5306 17.76 70.5306 20.226C70.5306 22.674 72.5106 24.456 75.0666 24.456C77.6226 24.456 79.5846 22.674 79.5846 20.226C79.5846 17.76 77.6226 15.996 75.0666 15.996ZM75.0666 18.066C76.2906 18.066 77.2446 18.858 77.2446 20.226C77.2446 21.576 76.2906 22.368 75.0666 22.368C73.8246 22.368 72.8706 21.576 72.8706 20.226C72.8706 18.858 73.8246 18.066 75.0666 18.066Z" fill="#F5F5F5"/>
</svg>
